<?xml version="1.0" encoding="UTF-8"?>
<svg version="1.1" xmlns="http://www.w3.org/2000/svg" width="32" height="32">
<path d="M0 0 C1.25159912 0.00523682 2.50319824 0.01047363 3.79272461 0.01586914 C4.78942421 0.01799156 4.78942421 0.01799156 5.80625916 0.02015686 C7.93590735 0.02577021 10.06545175 0.03832485 12.19506836 0.05102539 C13.63582205 0.05603868 15.07657739 0.06060188 16.51733398 0.06469727 C20.05577938 0.07574394 23.59416375 0.09301747 27.13256836 0.11352539 C28.07563621 3.30375442 28.26138024 6.1794461 28.26538086 9.50024414 C28.26731445 11.03068359 28.26731445 11.03068359 28.26928711 12.59204102 C28.26541992 13.65100586 28.26155273 14.7099707 28.25756836 15.80102539 C28.26336914 17.406875 28.26336914 17.406875 28.26928711 19.04516602 C28.26799805 20.0615918 28.26670898 21.07801758 28.26538086 22.12524414 C28.26425293 23.05812256 28.263125 23.99100098 28.26196289 24.95214844 C28.13256836 27.11352539 28.13256836 27.11352539 27.13256836 28.11352539 C24.9260618 28.2136494 22.71634449 28.24433719 20.50756836 28.24633789 C19.84547363 28.24729462 19.18337891 28.24825134 18.5012207 28.24923706 C17.09903875 28.24991865 15.69685366 28.24806581 14.29467773 28.24389648 C12.14161123 28.23854785 9.98875334 28.24384209 7.83569336 28.25024414 C6.4763179 28.24958336 5.11694256 28.24830218 3.75756836 28.24633789 C2.51233398 28.24520996 1.26709961 28.24408203 -0.01586914 28.24291992 C-2.86743164 28.11352539 -2.86743164 28.11352539 -3.86743164 27.11352539 C-3.9671495 25.19894257 -3.99823753 23.28070222 -4.00024414 21.36352539 C-4.0015332 20.19821289 -4.00282227 19.03290039 -4.00415039 17.83227539 C-4.0002832 16.60508789 -3.99641602 15.37790039 -3.99243164 14.11352539 C-3.99629883 12.88633789 -4.00016602 11.65915039 -4.00415039 10.39477539 C-4.00286133 9.22946289 -4.00157227 8.06415039 -4.00024414 6.86352539 C-3.99911621 5.78586914 -3.99798828 4.70821289 -3.99682617 3.59790039 C-3.81087473 0.02763263 -3.6144243 0.14309981 0 0 Z M4.13256836 2.11352539 C4.13256836 2.44352539 4.13256836 2.77352539 4.13256836 3.11352539 C5.78256836 3.11352539 7.43256836 3.11352539 9.13256836 3.11352539 C9.13256836 7.07352539 9.13256836 11.03352539 9.13256836 15.11352539 C7.81256836 15.44352539 6.49256836 15.77352539 5.13256836 16.11352539 C7.11256836 18.09352539 9.09256836 20.07352539 11.13256836 22.11352539 C14.92778146 20.62254882 16.74299567 18.3565169 19.13256836 15.11352539 C17.81256836 15.11352539 16.49256836 15.11352539 15.13256836 15.11352539 C15.13256836 11.15352539 15.13256836 7.19352539 15.13256836 3.11352539 C16.78256836 3.11352539 18.43256836 3.11352539 20.13256836 3.11352539 C20.13256836 2.78352539 20.13256836 2.45352539 20.13256836 2.11352539 C14.85256836 2.11352539 9.57256836 2.11352539 4.13256836 2.11352539 Z " fill="#FF79C6" transform="translate(3.867431640625,1.886474609375)"/>
</svg>
