<?xml version="1.0" encoding="UTF-8"?>
<svg version="1.1" xmlns="http://www.w3.org/2000/svg" width="32" height="32">
<path d="M0 0 C6.28755969 -1.05751862 12.80473107 -1.18832316 18.8359375 1.0546875 C22.29052097 3.66121438 23.72442259 6.0662204 24.34082031 10.39160156 C25.53378186 26.6993272 25.53378186 26.6993272 22 32 C19.78515625 32.38818359 19.78515625 32.38818359 17.0625 32.3984375 C15.59683594 32.40423828 15.59683594 32.40423828 14.1015625 32.41015625 C13.07804687 32.39855469 12.05453125 32.38695312 11 32.375 C9.97648438 32.38660156 8.95296875 32.39820313 7.8984375 32.41015625 C6.92132813 32.40628906 5.94421875 32.40242188 4.9375 32.3984375 C4.03902344 32.39505371 3.14054688 32.39166992 2.21484375 32.38818359 C1.48394531 32.26008301 0.75304687 32.13198242 0 32 C-2.30240295 28.54639557 -2.25691777 27.19500616 -2.265625 23.125 C-2.26820312 21.97515625 -2.27078125 20.8253125 -2.2734375 19.640625 C-2.26570312 18.43921875 -2.25796875 17.2378125 -2.25 16 C-2.25773438 14.79859375 -2.26546875 13.5971875 -2.2734375 12.359375 C-2.27085938 11.20953125 -2.26828125 10.0596875 -2.265625 8.875 C-2.26336914 7.82054687 -2.26111328 6.76609375 -2.25878906 5.6796875 C-2 3 -2 3 0 0 Z M2 4 C1.90053547 5.76859193 1.86919783 7.54111451 1.8671875 9.3125 C1.86589844 10.38757813 1.86460938 11.46265625 1.86328125 12.5703125 C1.86714844 13.70210937 1.87101563 14.83390625 1.875 16 C1.87113281 17.13179687 1.86726562 18.26359375 1.86328125 19.4296875 C1.86457031 20.50476563 1.86585937 21.57984375 1.8671875 22.6875 C1.86831543 23.68136719 1.86944336 24.67523437 1.87060547 25.69921875 C1.7416567 27.96375226 1.7416567 27.96375226 3 29 C5.6773138 29.09981214 8.32304175 29.13879875 11 29.125 C12.12535156 29.13080078 12.12535156 29.13080078 13.2734375 29.13671875 C16.93606117 29.47675541 16.93606117 29.47675541 20 28 C20.08631874 26.65732587 20.10706473 25.31025678 20.09765625 23.96484375 C20.09282227 22.75151367 20.09282227 22.75151367 20.08789062 21.51367188 C20.07951172 20.66353516 20.07113281 19.81339844 20.0625 18.9375 C20.05798828 18.08349609 20.05347656 17.22949219 20.04882812 16.34960938 C20.03700373 14.23304337 20.01906769 12.11651315 20 10 C17.69 10 15.38 10 13 10 C13 7.69 13 5.38 13 3 C11.35425434 2.97311849 9.70838587 2.95365877 8.0625 2.9375 C6.68771484 2.92009766 6.68771484 2.92009766 5.28515625 2.90234375 C3.03406673 2.74050951 3.03406673 2.74050951 2 4 Z " fill="#FF1493" transform="translate(5,0)"/>
</svg>
