<?xml version="1.0" encoding="UTF-8"?>
<svg version="1.1" xmlns="http://www.w3.org/2000/svg" width="24" height="24">
<path d="M0 0 C1.23234375 -0.06058594 2.4646875 -0.12117188 3.734375 -0.18359375 C7.51592708 0.48448045 9.11277722 1.42948409 11.36523438 4.5637207 C13.01224911 8.05181068 12.81207315 11.46660684 12.625 15.25 C12.60373047 16.41305664 12.60373047 16.41305664 12.58203125 17.59960938 C12.43362534 23.25387466 12.43362534 23.25387466 11.25 24.4375 C9.91956375 24.5358721 8.58406656 24.56828592 7.25 24.5703125 C6.445625 24.57160156 5.64125 24.57289062 4.8125 24.57421875 C3.966875 24.57035156 3.12125 24.56648438 2.25 24.5625 C1.404375 24.56636719 0.55875 24.57023437 -0.3125 24.57421875 C-1.116875 24.57292969 -1.92125 24.57164063 -2.75 24.5703125 C-3.4925 24.56918457 -4.235 24.56805664 -5 24.56689453 C-6.75 24.4375 -6.75 24.4375 -7.75 23.4375 C-7.8491657 21.81492456 -7.88079777 20.18810169 -7.8828125 18.5625 C-7.88410156 17.57765625 -7.88539062 16.5928125 -7.88671875 15.578125 C-7.88285156 14.54171875 -7.87898437 13.5053125 -7.875 12.4375 C-7.88080078 10.88289062 -7.88080078 10.88289062 -7.88671875 9.296875 C-7.88542969 8.31203125 -7.88414063 7.3271875 -7.8828125 6.3125 C-7.88168457 5.40242187 -7.88055664 4.49234375 -7.87939453 3.5546875 C-7.60048803 -1.00885434 -3.8223784 0.13084905 0 0 Z M-3.75 3.4375 C-3.75 9.3775 -3.75 15.3175 -3.75 21.4375 C0.21 21.4375 4.17 21.4375 8.25 21.4375 C9.08796731 16.78212607 9.2661692 13.06671525 8.25 8.4375 C6.6 8.4375 4.95 8.4375 3.25 8.4375 C2.92 6.7875 2.59 5.1375 2.25 3.4375 C0.27 3.4375 -1.71 3.4375 -3.75 3.4375 Z " fill="#FF1493" transform="translate(9.75,-0.4375)"/>
</svg>
