<?xml version="1.0" encoding="UTF-8"?>
<svg version="1.1" xmlns="http://www.w3.org/2000/svg" width="24" height="24">
<path d="M0 0 C0.99 0.66 1.98 1.32 3 2 C3 2.66 3 3.32 3 4 C3.85464844 3.98839844 4.70929687 3.97679687 5.58984375 3.96484375 C6.69457031 3.95582031 7.79929687 3.94679688 8.9375 3.9375 C10.03964844 3.92589844 11.14179688 3.91429687 12.27734375 3.90234375 C15 4 15 4 16 5 C16.09981214 7.6773138 16.13879875 10.32304175 16.125 13 C16.13080078 14.12535156 16.13080078 14.12535156 16.13671875 15.2734375 C16.12661053 20.87338947 16.12661053 20.87338947 15 22 C13.37742456 22.0991657 11.75060169 22.13079777 10.125 22.1328125 C9.14015625 22.13410156 8.1553125 22.13539062 7.140625 22.13671875 C6.10421875 22.13285156 5.0678125 22.12898438 4 22.125 C2.44539062 22.13080078 2.44539062 22.13080078 0.859375 22.13671875 C-0.12546875 22.13542969 -1.1103125 22.13414063 -2.125 22.1328125 C-3.03507813 22.13168457 -3.94515625 22.13055664 -4.8828125 22.12939453 C-7 22 -7 22 -8 21 C-8.08669432 19.5112814 -8.10703494 18.018555 -8.09765625 16.52734375 C-8.09443359 15.62822266 -8.09121094 14.72910156 -8.08789062 13.80273438 C-8.07951172 12.85720703 -8.07113281 11.91167969 -8.0625 10.9375 C-8.05798828 9.98810547 -8.05347656 9.03871094 -8.04882812 8.06054688 C-8.0370011 5.70696935 -8.02052025 3.35351523 -8 1 C-5.22899606 -0.38550197 -3.0665294 -0.1877467 0 0 Z " fill="#FE78C5" transform="translate(8,1)"/>
</svg>
