<?xml version="1.0" encoding="UTF-8"?>
<svg version="1.1" xmlns="http://www.w3.org/2000/svg" width="16" height="16">
<path d="M0 0 C2.5 0.125 2.5 0.125 3.5 1.125 C4.82781878 1.33104085 6.16295895 1.4912959 7.5 1.625 C11.38888889 2.01388889 11.38888889 2.01388889 12.5 3.125 C12.59873816 5.12299572 12.62971799 7.12457158 12.625 9.125 C12.62886719 10.7646875 12.62886719 10.7646875 12.6328125 12.4375 C12.5 15.125 12.5 15.125 11.5 16.125 C9.16839945 16.22409302 6.83370058 16.25470504 4.5 16.25 C3.22125 16.25257812 1.9425 16.25515625 0.625 16.2578125 C-2.5 16.125 -2.5 16.125 -3.5 15.125 C-3.59909302 12.79339945 -3.62970504 10.45870058 -3.625 8.125 C-3.62757812 6.84625 -3.63015625 5.5675 -3.6328125 4.25 C-3.45953902 0.17297695 -3.45953902 0.17297695 0 0 Z M-1.5 5.125 C-1.5 7.765 -1.5 10.405 -1.5 13.125 C2.46 13.125 6.42 13.125 10.5 13.125 C10.5 10.485 10.5 7.845 10.5 5.125 C6.54 5.125 2.58 5.125 -1.5 5.125 Z " fill="#FF79C6" transform="translate(3.5,-0.125)"/>
</svg>
