<?xml version="1.0" encoding="UTF-8"?>
<svg version="1.1" xmlns="http://www.w3.org/2000/svg" width="24" height="24">
<path d="M0 0 C3.625 0.1875 3.625 0.1875 6.625 2.1875 C9.82306665 2.6478764 9.82306665 2.6478764 13.3125 2.8125 C16.4371875 2.998125 16.4371875 2.998125 19.625 3.1875 C19.625 9.4575 19.625 15.7275 19.625 22.1875 C11.705 22.1875 3.785 22.1875 -4.375 22.1875 C-4.395625 18.743125 -4.41625 15.29875 -4.4375 11.75 C-4.446604 10.66275635 -4.45570801 9.5755127 -4.46508789 8.45532227 C-4.46758545 7.60510498 -4.47008301 6.7548877 -4.47265625 5.87890625 C-4.47789307 5.00435791 -4.48312988 4.12980957 -4.48852539 3.22875977 C-4.29508434 -0.2494351 -3.59506053 0.19972559 0 0 Z " fill="#AC1A63" transform="translate(4.375,0.8125)"/>
<path d="M0 0 C0.69416016 -0.01224609 1.38832031 -0.02449219 2.10351562 -0.03710938 C3.92470901 -0.04239842 5.7453692 0.06580793 7.5625 0.1875 C8.2225 0.8475 8.8825 1.5075 9.5625 2.1875 C8.98557692 8.76442308 8.98557692 8.76442308 7.5625 10.1875 C5.27437186 10.33965174 2.98050872 10.40936492 0.6875 10.4375 C-1.19582031 10.47617187 -1.19582031 10.47617187 -3.1171875 10.515625 C-6.4375 10.1875 -6.4375 10.1875 -8.3984375 8.8671875 C-9.4375 7.1875 -9.4375 7.1875 -9.1875 4.0625 C-7.81498515 -1.19880693 -4.77118331 0.00440552 0 0 Z " fill="#E42283" transform="translate(11.4375,8.8125)"/>
<path d="M0 0 C1.39456452 0.00667256 2.78911118 0.01863093 4.18359375 0.03515625 C4.89451172 0.03966797 5.60542969 0.04417969 6.33789062 0.04882812 C8.09899388 0.06064761 9.86005411 0.07858362 11.62109375 0.09765625 C11.62109375 0.42765625 11.62109375 0.75765625 11.62109375 1.09765625 C10.77804688 1.13503906 9.935 1.17242187 9.06640625 1.2109375 C7.42285156 1.30955078 7.42285156 1.30955078 5.74609375 1.41015625 C4.65554688 1.46816406 3.565 1.52617187 2.44140625 1.5859375 C1.04535156 1.83923828 1.04535156 1.83923828 -0.37890625 2.09765625 C-1.36890625 3.58265625 -1.36890625 3.58265625 -2.37890625 5.09765625 C-0.58094512 7.30829035 -0.58094512 7.30829035 1.86328125 7.36328125 C2.73210938 7.358125 3.6009375 7.35296875 4.49609375 7.34765625 C5.35976562 7.3528125 6.2234375 7.35796875 7.11328125 7.36328125 C9.72582952 7.08656274 11.37110255 6.41625575 13.62109375 5.09765625 C12.96109375 6.74765625 12.30109375 8.39765625 11.62109375 10.09765625 C9.35084407 10.17862949 7.079773 10.23683329 4.80859375 10.28515625 C2.91173828 10.33736328 2.91173828 10.33736328 0.9765625 10.390625 C-2.37890625 10.09765625 -2.37890625 10.09765625 -4.34375 8.78125 C-5.37890625 7.09765625 -5.37890625 7.09765625 -5.12890625 3.97265625 C-4.12365176 0.11918069 -4.12365176 0.11918069 0 0 Z " fill="#C90265" transform="translate(7.37890625,8.90234375)"/>
<path d="M0 0 C6.625 -0.25 6.625 -0.25 10 2 C13.19806665 2.4603764 13.19806665 2.4603764 16.6875 2.625 C18.45673828 2.73714844 18.45673828 2.73714844 20.26171875 2.8515625 C21.61716797 2.92503906 21.61716797 2.92503906 23 3 C23 3.66 23 4.32 23 5 C15.08 5 7.16 5 -1 5 C-0.67 3.35 -0.34 1.7 0 0 Z " fill="#C90265" transform="translate(1,1)"/>
<path d="M0 0 C0.66 0 1.32 0 2 0 C2.2475 0.78375 2.495 1.5675 2.75 2.375 C4.23601774 5.49563725 4.83141304 5.81706087 8 7 C10.24133258 7.28693388 12.4944319 7.48966591 14.75 7.625 C15.92046875 7.69976563 17.0909375 7.77453125 18.296875 7.8515625 C19.63492187 7.92503906 19.63492187 7.92503906 21 8 C21 8.33 21 8.66 21 9 C14.07 9 7.14 9 0 9 C0 6.03 0 3.06 0 0 Z " fill="#53032B" transform="translate(0,14)"/>
<path d="M0 0 C0.33 0 0.66 0 1 0 C1 2.97 1 5.94 1 9 C-1.62594784 8.8863485 -4.25011547 8.75960946 -6.875 8.625 C-7.62136719 8.5940625 -8.36773437 8.563125 -9.13671875 8.53125 C-14.7734375 8.2265625 -14.7734375 8.2265625 -17 6 C-16.02417969 5.98582031 -15.04835938 5.97164062 -14.04296875 5.95703125 C-12.77066406 5.90933594 -11.49835937 5.86164062 -10.1875 5.8125 C-8.92292969 5.77769531 -7.65835937 5.74289063 -6.35546875 5.70703125 C-2.82244159 5.35046275 -2.82244159 5.35046275 -1.11328125 2.44921875 C-0.56220703 1.23685547 -0.56220703 1.23685547 0 0 Z " fill="#800542" transform="translate(23,14)"/>
<path d="M0 0 C7.92 0 15.84 0 24 0 C24 0.66 24 1.32 24 2 C23.10539062 1.98839844 22.21078125 1.97679687 21.2890625 1.96484375 C14.11820485 1.91132989 7.11488616 2.08195017 0 3 C0 2.01 0 1.02 0 0 Z " fill="#6F0C3E" transform="translate(0,6)"/>
<path d="M0 0 C4.62 0 9.24 0 14 0 C13.01 1.485 13.01 1.485 12 3 C9.6875 3.3984375 9.6875 3.3984375 7 3.375 C6.113125 3.38273437 5.22625 3.39046875 4.3125 3.3984375 C3.1678125 3.20121094 3.1678125 3.20121094 2 3 C1.34 2.01 0.68 1.02 0 0 Z " fill="#ED0478" transform="translate(5,14)"/>
<path d="M0 0 C6.75 -0.125 6.75 -0.125 9 1 C9 1.99 9 2.98 9 4 C6.03 4 3.06 4 0 4 C0 2.68 0 1.36 0 0 Z " fill="#D8016C" transform="translate(1,1)"/>
<path d="M0 0 C0.66 0 1.32 0 2 0 C1.42655063 2.86724686 1.1385485 3.8614515 -1 6 C-3.74485593 6.14507695 -6.38480543 6.18652423 -9.125 6.125 C-9.87910156 6.11597656 -10.63320312 6.10695313 -11.41015625 6.09765625 C-13.27357254 6.0740687 -15.13682593 6.03819719 -17 6 C-17.33 5.34 -17.66 4.68 -18 4 C-12.72 4 -7.44 4 -2 4 C-1.34 2.68 -0.68 1.36 0 0 Z " fill="#A60153" transform="translate(21,14)"/>
<path d="M0 0 C4.95 0 9.9 0 15 0 C15 0.33 15 0.66 15 1 C13.75283203 1.05607422 13.75283203 1.05607422 12.48046875 1.11328125 C11.39378906 1.17902344 10.30710937 1.24476562 9.1875 1.3125 C7.56908203 1.39951172 7.56908203 1.39951172 5.91796875 1.48828125 C2.75390454 2.0431573 2.01193847 2.63264023 0 5 C-0.66 5 -1.32 5 -2 5 C-1.34 3.35 -0.68 1.7 0 0 Z " fill="#C01E6E" transform="translate(4,9)"/>
<path d="M0 0 C1.95825873 -0.02694851 3.91662226 -0.04637218 5.875 -0.0625 C6.96554688 -0.07410156 8.05609375 -0.08570313 9.1796875 -0.09765625 C12 0 12 0 14 1 C14 2.98 14 4.96 14 7 C11 3.25 11 3.25 11 1 C7.37 1 3.74 1 0 1 C0 0.67 0 0.34 0 0 Z " fill="#8F1C55" transform="translate(10,7)"/>
<path d="M0 0 C-0.7115625 0.680625 -0.7115625 0.680625 -1.4375 1.375 C-3.09027808 2.93258204 -3.09027808 2.93258204 -4 5 C-4.66 5 -5.32 5 -6 5 C-6 3.35 -6 1.7 -6 0 C-3.50907189 -1.24546405 -2.58919267 -0.7767578 0 0 Z " fill="#8C1F55" transform="translate(6,9)"/>
<path d="M0 0 C0.66 0 1.32 0 2 0 C2.99 2.31 3.98 4.62 5 7 C2.525 6.01 2.525 6.01 0 5 C0 3.35 0 1.7 0 0 Z " fill="#850846" transform="translate(0,14)"/>
</svg>
