<?xml version="1.0" encoding="UTF-8"?>
<svg version="1.1" xmlns="http://www.w3.org/2000/svg" width="24" height="24">
<path d="M0 0 C2.33870633 1.38196283 4.54879111 2.78725437 6.71875 4.421875 C7.41613281 4.9375 8.11351563 5.453125 8.83203125 5.984375 C9.61126953 6.6959375 9.61126953 6.6959375 10.40625 7.421875 C10.40625 8.081875 10.40625 8.741875 10.40625 9.421875 C9.41625 9.421875 8.42625 9.421875 7.40625 9.421875 C7.40625 13.381875 7.40625 17.341875 7.40625 21.421875 C5.09625 21.421875 2.78625 21.421875 0.40625 21.421875 C0.40625 19.441875 0.40625 17.461875 0.40625 15.421875 C-0.91375 15.421875 -2.23375 15.421875 -3.59375 15.421875 C-3.59375 17.401875 -3.59375 19.381875 -3.59375 21.421875 C-5.90375 21.421875 -8.21375 21.421875 -10.59375 21.421875 C-10.59375 17.461875 -10.59375 13.501875 -10.59375 9.421875 C-11.58375 9.421875 -12.57375 9.421875 -13.59375 9.421875 C-13.59375 8.761875 -13.59375 8.101875 -13.59375 7.421875 C-11.36328125 5.40625 -11.36328125 5.40625 -8.40625 3.171875 C-6.96185547 2.05039063 -6.96185547 2.05039063 -5.48828125 0.90625 C-2.59375 -0.578125 -2.59375 -0.578125 0 0 Z " fill="#FE78C5" transform="translate(13.59375,1.578125)"/>
</svg>
