<?xml version="1.0" encoding="UTF-8"?>
<svg version="1.1" xmlns="http://www.w3.org/2000/svg" width="32" height="25">
<path d="M0 0 C3.63 0 7.26 0 11 0 C11.33 0.33 11.66 0.66 12 1 C13.48638992 1.15655027 14.97949127 1.25066943 16.47265625 1.31640625 C17.28226807 1.35451416 18.09187988 1.39262207 18.92602539 1.43188477 C20.47858032 1.49653931 20.47858032 1.49653931 22.0625 1.5625 C25.341875 1.706875 28.62125 1.85125 32 2 C32 9.59 32 17.18 32 25 C21.44 25 10.88 25 0 25 C0 16.75 0 8.5 0 0 Z " fill="#FB8DB5" transform="translate(0,0)"/>
<path d="M0 0 C1.64574566 -0.02688151 3.29161413 -0.04634123 4.9375 -0.0625 C5.85402344 -0.07410156 6.77054687 -0.08570313 7.71484375 -0.09765625 C10 -0 10 -0 11 1 C12.41327947 1.15620555 13.8335459 1.25056173 15.25390625 1.31640625 C16.10791016 1.35830078 16.96191406 1.40019531 17.84179688 1.44335938 C18.73962891 1.48267578 19.63746094 1.52199219 20.5625 1.5625 C21.46419922 1.60568359 22.36589844 1.64886719 23.29492188 1.69335938 C25.52978485 1.79978142 27.76476308 1.90179988 30 2 C30 2.66 30 3.32 30 4 C20.1 4 10.2 4 0 4 C0 2.68 0 1.36 0 0 Z " fill="#FBABC8" transform="translate(1,0)"/>
</svg>
