<?xml version="1.0" encoding="UTF-8"?>
<svg version="1.1" xmlns="http://www.w3.org/2000/svg" width="24" height="24">
<path d="M0 0 C2.5625 1.3125 2.5625 1.3125 4 4 C4.30057028 6.79100977 4.44428068 9.57168601 4.5859375 12.375 C5.17545305 16.1123061 7.18720441 17.61994219 10 20 C10 21.32 10 22.64 10 24 C5.39694656 23.48854962 5.39694656 23.48854962 3.375 21 C0.4943959 18.57422813 -0.80660199 18.69593623 -4.5 18.5 C-7.8415361 18.28139483 -9.70926685 18.15550843 -12.6875 16.5625 C-14.79481653 12.44821535 -14.70496025 8.5147454 -14 4 C-11.15285782 -1.43545324 -5.4409819 -0.84194895 0 0 Z M-10 6 C-10.33333333 9 -10.33333333 9 -10 12 C-8.11499729 14.31563087 -8.11499729 14.31563087 -5 14.25 C-1.88500271 14.31563087 -1.88500271 14.31563087 0 12 C0.33333333 9 0.33333333 9 0 6 C-1.88500271 3.68436913 -1.88500271 3.68436913 -5 3.75 C-8.11499729 3.68436913 -8.11499729 3.68436913 -10 6 Z " fill="#FE78C5" transform="translate(14,0)"/>
</svg>
